<?xml version="1.0" encoding="UTF-8"?>
<svg xmlns="http://www.w3.org/2000/svg" xmlns:xlink="http://www.w3.org/1999/xlink" viewBox="0 0 24 24" width="24px" height="24px">
<g id="surface31987146">
<path style=" stroke:none;fill-rule:nonzero;fill:rgb(100%,100%,100%);fill-opacity:1;" d="M 19.976562 3.121094 L 19.609375 3.269531 C 19.609375 3.269531 6.636719 8.574219 2.613281 10.269531 L 2 10.527344 L 2 12.777344 L 6.949219 14.753906 L 8.679688 19.996094 L 10.25 20.003906 L 12.957031 17.71875 L 16.355469 20.996094 L 18.808594 20.996094 L 21.964844 3.875 Z M 19.644531 5.417969 L 17.144531 18.980469 L 13.042969 15.03125 L 10.222656 17.410156 L 11 14.375 L 17.28125 8 L 17.082031 7.800781 C 17.082031 7.800781 10.707031 11.472656 8 13.023438 L 4.535156 11.640625 C 9.078125 9.746094 18.699219 5.804688 19.644531 5.417969 Z M 19.644531 5.417969 "/>
</g>
</svg>
